<svg width="96" height="22" viewBox="0 0 96 22" fill="none" xmlns="http://www.w3.org/2000/svg">
<path d="M12.3058 7.52526V9.96136H6.1682V15.226H14.6607V17.6553H2.4531V0.332031H14.4306V2.76812H6.1682V7.52526H12.3058Z" fill="black"/>
<path d="M28.9321 17.6549H17.9697V0.338379H21.678V15.1985H28.9321V17.6549Z" fill="black"/>
<path d="M45.0035 12.3835C44.1373 15.9902 41.1125 18 37.8238 18C35.8546 18 33.8584 17.4248 32.4712 16.0985C30.9825 14.6977 30.0283 12.4444 30.0283 8.8985C30.0283 5.83308 30.9013 3.51203 32.4441 2.00978C33.8449 0.690226 35.6922 0 37.8644 0C41.2952 0 44.0561 1.65789 44.8073 5.40677L41.0787 5.73834C40.6118 3.6609 39.6915 2.46316 37.8441 2.46316C35.584 2.46316 33.8381 4.25639 33.8381 9.03383C33.8381 13.8113 35.6922 15.5571 37.8035 15.5571C39.9148 15.5571 40.9163 13.8248 41.2343 11.9639L45.0103 12.397L45.0035 12.3835Z" fill="black"/>
<path d="M56.5069 6.53687C56.1077 5.21732 55.7152 3.94514 55.3363 2.40905H55.1468C54.7814 3.93161 54.3821 5.25793 54.0032 6.53687L52.7851 10.6647H57.725L56.5069 6.53687ZM51.9866 13.094L50.64 17.6617H46.6069L52.7445 0.338379H57.7723L63.9167 17.6617H59.8904L58.5167 13.094H51.9866Z" fill="black"/>
<path d="M70.1111 5.3843L80.1558 5.0411L80.5137 17.6553L67.28 17.6553L67.5394 9.6799L70.1111 5.3843Z" fill="black"/>
<circle cx="73.897" cy="2.5" r="1.8" fill="black"/>
</svg>